<?xml version="1.0" encoding="UTF-8"?>
<svg id="Calque_1" data-name="Calque 1" xmlns="http://www.w3.org/2000/svg" version="1.1" viewBox="0 0 300 300">
  <defs>
    <style>
      .cls-1 {
        fill: #000;
      }

      .cls-1, .cls-2 {
        stroke-width: 0px;
      }

      .cls-2 {
        fill: #b6e1f8;
      }
    </style>
  </defs>
  <rect class="cls-2" width="300" height="300" rx="31.56" ry="31.56"/>
  <g>
    <path class="cls-1" d="M89.93,231.16c-10.93,0-20.55-4.49-28.88-13.46-3.38-3.64-5.53-3.19-6.44,1.37l-1.56,9.17h-4.29l.19-56.38h4.29c.65,15.61,4.39,28.29,11.22,38.04s15.32,14.63,25.46,14.63c8.58,0,15.12-2.86,19.61-8.58,4.49-5.72,6.73-12.36,6.73-19.9,0-4.68-.78-9.1-2.34-13.27-1.56-4.16-4.16-8.19-7.8-12.1-3.64-3.9-6.86-7.05-9.66-9.46-2.8-2.41-6.86-5.62-12.19-9.66-5.73-4.29-10.11-7.77-13.17-10.44-3.06-2.66-6.51-6.08-10.34-10.24-3.84-4.16-6.6-8.52-8.29-13.07-1.69-4.55-2.54-9.43-2.54-14.63,0-10.27,3.25-18.56,9.75-24.88,6.5-6.31,15.02-9.46,25.56-9.46,9.62,0,17.82,3.32,24.58,9.95,1.56,1.43,2.96,1.98,4.19,1.66,1.23-.32,1.92-1.53,2.05-3.61l.78-6.05h4.1l2.54,50.73h-4.1c-1.3-13.92-4.81-25.07-10.54-33.46-5.72-8.39-13.59-12.58-23.61-12.58-7.54,0-13.5,2.44-17.85,7.32-4.36,4.88-6.54,10.9-6.54,18.05,0,7.8,2.44,14.63,7.32,20.49,4.88,5.85,12.39,12.62,22.53,20.29,5.98,4.42,10.6,8.03,13.85,10.83,3.25,2.8,6.89,6.41,10.93,10.83,4.03,4.42,6.96,9.11,8.78,14.05,1.82,4.95,2.73,10.34,2.73,16.19,0,10.8-3.41,19.77-10.24,26.92-6.83,7.16-15.77,10.73-26.83,10.73Z"/>
    <path class="cls-1" d="M155.49,209.31v-118.62c0-6.11-1.14-10.08-3.41-11.9-2.28-1.82-7.9-2.73-16.88-2.73v-4.1h52.68v4.1c-9.11,0-14.8.91-17.07,2.73-2.28,1.82-3.41,5.79-3.41,11.9v118.62c0,6.12,1.14,10.08,3.41,11.9,2.27,1.82,7.97,2.73,17.07,2.73v4.1h-52.68v-4.1c8.97,0,14.6-.91,16.88-2.73,2.27-1.82,3.41-5.79,3.41-11.9ZM185.14,141.42l52.29,71.41c3.51,4.68,6.86,7.68,10.05,8.97,3.19,1.3,7.77,1.95,13.75,1.95v4.29h-53.07v-4.1c9.49,0,15.05-.84,16.68-2.54,1.62-1.69.36-5.4-3.8-11.12l-47.8-64.38,40.58-53.26c4.81-6.24,7.22-10.27,7.22-12.1,0-1.69-1.07-2.86-3.22-3.51-2.15-.65-6.47-.98-12.97-.98v-4.1h49.36v4.1c-6.63,0-11.64.62-15.02,1.85-3.38,1.24-6.83,4.13-10.34,8.68l-43.7,54.82Z"/>
  </g>
</svg>